# xmcd
#
# Track frame offsets:
#	150
#	11244
#	27835
#	52261
#	70825
#	88755
#	100746
#	111652
#	127523
#	149802
#
# Disc length: 2214 seconds
#
# Revision: 1
# Processed by: cddbd v1.5PL3 Copyright (c) Steve Scherf et al.
# Submitted via: EasyCDDAExtractor 5.1.0
#
DISCID=9008a40a
DTITLE=Canzoniere Grecanico Salentino - Serenata
DYEAR=2000
DGENRE=Chanson
TTITLE0=Serenata
TTITLE1=Ota muleiddhu
TTITLE2=Le tre sorelle
TTITLE3=Comu aggio fare
TTITLE4=Fimmene fimmene
TTITLE5=Tarantella frigia
TTITLE6=Oriamu pisulina
TTITLE7=Roca
TTITLE8=Lu tristu furese
TTITLE9=Dumenica matina
EXTD=
EXTT0=
EXTT1=
EXTT2=
EXTT3=
EXTT4=
EXTT5=
EXTT6=
EXTT7=
EXTT8=
EXTT9=
PLAYORDER=
